# xmcd
#
# Track frame offsets: 
#        150
#        19021
#        39677
#        58756
#        78203
#        96160
#        116454
#        135047
#        153131
#        172175
#
# Disc length: 2560 seconds
#
# Revision: 0
# Processed by: cddbd v1.5.2PL0 Copyright (c) Steve Scherf et al.
# Submitted via: ExactAudioCopy v0.95b4
#
DISCID=7109fe0a
DTITLE=สายใย,ไหมพรม อุดมพร - ครึ่งใจ เผื่อไว้เจ็บ
DYEAR=2007
DGENRE=Country
TTITLE0=ครึ่งใจเผื่อไว้เจ็บ
TTITLE1=คนบ่มีจุดหมาย
TTITLE2=อยากอยู่เงียบๆ
TTITLE3=เกิบแตะแพ้ส้นหย่อง
TTITLE4=หัวใจส่งสการกรรม
TTITLE5=ฮักพังที่บางกอก
TTITLE6=ห่วงแฟนแดนใต้
TTITLE7=ต่อใจได้หน่อยนึง
TTITLE8=ผูกแขนแฟนเก่า
TTITLE9=บอกน้องได้ไหม
EXTD=
EXTT0=
EXTT1=
EXTT2=
EXTT3=
EXTT4=
EXTT5=
EXTT6=
EXTT7=
EXTT8=
EXTT9=
PLAYORDER=
